<svg width="28" height="29" viewBox="0 0 28 29" fill="none" xmlns="http://www.w3.org/2000/svg">
<path d="M6.15809 12.8376C6.46737 12.8376 6.71809 12.5869 6.71809 12.2776C6.71809 11.9683 6.46737 11.7176 6.15809 11.7176C5.84881 11.7176 5.59809 11.9683 5.59809 12.2776C5.59809 12.5869 5.84881 12.8376 6.15809 12.8376Z" fill="CurrentColor"/>
<path d="M9.51809 12.8376C9.82737 12.8376 10.0781 12.5869 10.0781 12.2776C10.0781 11.9683 9.82737 11.7176 9.51809 11.7176C9.20881 11.7176 8.95809 11.9683 8.95809 12.2776C8.95809 12.5869 9.20881 12.8376 9.51809 12.8376Z" fill="CurrentColor"/>
<path d="M11.76 18.4376H10.4664C11.5584 17.7376 12.6224 16.6568 12.8352 15.0776H13.44C14.364 15.0776 15.12 14.3216 15.12 13.3976C15.12 12.4736 14.364 11.7176 13.44 11.7176H13.216C13.6416 10.6424 13.7032 9.44398 13.3672 8.31837C12.9416 6.88477 11.9168 5.70318 10.556 5.07598L10.024 4.82958C8.63519 4.18557 7.0392 4.19118 5.65041 4.82958L5.11841 5.07598C3.76322 5.70318 2.73841 6.88477 2.30719 8.31837C1.97121 9.44398 2.0328 10.6424 2.45841 11.7176H2.24C1.31042 11.7176 0.56 12.4736 0.56 13.3976C0.56 14.3216 1.31042 15.0776 2.24 15.0776H2.83921C3.05201 16.6568 4.12159 17.7376 5.20799 18.4376H3.92C1.75841 18.4376 0 20.196 0 22.3576V27.9576C0 28.2656 0.2464 28.5176 0.56 28.5176H6.16C6.46799 28.5176 6.72 28.2656 6.72 27.9576C6.72 27.6496 6.46799 27.3976 6.16 27.3976H3.92V25.1576C3.92 24.8496 3.66799 24.5976 3.36 24.5976C3.0464 24.5976 2.8 24.8496 2.8 25.1576V27.3976H1.12V22.3576C1.12 20.812 2.37439 19.5576 3.92 19.5576H11.76C13.3 19.5576 14.56 20.812 14.56 22.3576V27.3976H12.88V25.1576C12.88 24.8496 12.628 24.5976 12.32 24.5976C12.0064 24.5976 11.76 24.8496 11.76 25.1576V27.3976H8.4C8.0864 27.3976 7.84 27.6496 7.84 27.9576C7.84 28.2656 8.0864 28.5176 8.4 28.5176H15.12C15.428 28.5176 15.68 28.2656 15.68 27.9576V22.3576C15.68 20.196 13.9216 18.4376 11.76 18.4376ZM12.88 12.8376H13.44C13.748 12.8376 14 13.0896 14 13.3976C14 13.7056 13.748 13.9576 13.44 13.9576H12.88V12.8376ZM2.79999 13.9576H2.23999C1.92639 13.9576 1.67999 13.7056 1.67999 13.3976C1.67999 13.0896 1.92639 12.8376 2.23999 12.8376H2.79999V13.9576ZM3.21999 9.50557C3.24242 9.21436 3.2984 8.92318 3.38242 8.63758C3.71841 7.51197 4.52481 6.58236 5.58878 6.08958L6.12079 5.84876C7.21279 5.34478 8.46158 5.34478 9.55359 5.84876L10.0856 6.08958C11.1552 6.58235 11.956 7.51197 12.292 8.63758C12.3816 8.92318 12.432 9.21436 12.4544 9.50557C12.4096 9.49436 12.3648 9.47758 12.32 9.47758C11.1496 9.47758 10.1024 8.82796 9.57601 7.78637L9.4584 7.54557C9.26798 7.17038 8.64639 7.17038 8.45601 7.54557L8.3384 7.78637C7.81761 8.82796 6.7648 9.47758 5.59999 9.47758H3.35999C3.30961 9.47758 3.26481 9.49436 3.21999 9.50557ZM3.91999 14.5176V10.5976H5.59999C6.94401 10.5976 8.17602 9.96478 8.95999 8.90637C9.62639 9.81917 10.6344 10.4128 11.76 10.5584V14.5176C11.76 17.0936 8.5456 18.2024 7.83999 18.4152C7.12878 18.2024 3.91999 17.0936 3.91999 14.5176Z" fill="CurrentColor"/>
<path d="M9.12215 14.5457C8.4145 15.2534 7.26168 15.2534 6.55403 14.5457C6.33528 14.327 5.9809 14.327 5.76215 14.5457C5.54341 14.7645 5.54341 15.1191 5.76215 15.3376C6.33473 15.9099 7.08614 16.1959 7.83809 16.1959C8.59004 16.1959 9.34145 15.9099 9.91403 15.3376C10.1328 15.1191 10.1328 14.7645 9.91403 14.5457C9.69528 14.327 9.3409 14.327 9.12215 14.5457Z" fill="CurrentColor"/>
<path d="M27.4512 8.86156C26.8632 8.52557 26.516 7.91516 26.516 7.23758C26.516 6.55997 26.8632 5.94958 27.4512 5.61357C27.72 5.45678 27.8152 5.11516 27.6584 4.84637L26.5384 2.90876C26.3816 2.63997 26.04 2.54478 25.7712 2.70156C25.1832 3.04318 24.4832 3.04318 23.8952 2.70156C23.3072 2.36557 22.96 1.75516 22.96 1.07758C22.96 0.769584 22.708 0.517578 22.4 0.517578H20.16C19.8464 0.517578 19.6 0.769584 19.6 1.07758C19.6 1.75516 19.2472 2.36557 18.6592 2.70156C18.0712 3.04318 17.3712 3.04318 16.7832 2.70156C16.5144 2.54477 16.1728 2.63996 16.016 2.90876L14.896 4.84637C14.7448 5.11516 14.8344 5.45678 15.1032 5.61357C15.6912 5.94959 16.044 6.55997 16.044 7.23758C16.044 7.91516 15.6912 8.52557 15.1032 8.86156C14.8344 9.01837 14.7448 9.35996 14.896 9.62876L16.016 11.5664C16.1728 11.8352 16.5144 11.9248 16.7832 11.7736C17.3712 11.432 18.0712 11.432 18.6592 11.7736C19.2472 12.1096 19.6 12.72 19.6 13.3976C19.6 13.7056 19.8464 13.9576 20.16 13.9576H22.4C22.708 13.9576 22.96 13.7056 22.96 13.3976C22.96 12.72 23.3072 12.1096 23.8952 11.7736C24.4832 11.432 25.1832 11.432 25.7712 11.7736C26.04 11.9248 26.3816 11.8352 26.5384 11.5664L27.6584 9.62876C27.8152 9.35997 27.72 9.01837 27.4512 8.86156ZM26.432 9.51118L25.8216 10.564C25.004 10.2784 24.108 10.3568 23.3352 10.8048C22.5624 11.2472 22.0472 11.9864 21.8904 12.8376H20.6696C20.5072 11.9864 19.992 11.2472 19.2192 10.8048C18.4464 10.3568 17.5504 10.2784 16.7328 10.564L16.1224 9.51118C16.7832 8.94557 17.164 8.12796 17.164 7.23758C17.164 6.3472 16.7832 5.52958 16.1224 4.96398L16.7328 3.91118C17.5504 4.19678 18.4464 4.11838 19.2192 3.67038C19.992 3.22796 20.5072 2.48876 20.6696 1.63758H21.8904C22.0472 2.48876 22.5624 3.22797 23.3352 3.67038C24.108 4.11838 25.004 4.19678 25.8216 3.91118L26.432 4.96398C25.7768 5.52958 25.396 6.34716 25.396 7.23758C25.396 8.128 25.7768 8.94557 26.432 9.51118Z" fill="CurrentColor"/>
<path d="M21.2781 4.43758C19.7343 4.43758 18.4781 5.69375 18.4781 7.23758C18.4781 8.78141 19.7343 10.0376 21.2781 10.0376C22.8219 10.0376 24.0781 8.78141 24.0781 7.23758C24.0781 5.69375 22.8219 4.43758 21.2781 4.43758ZM21.2781 8.91758C20.3517 8.91758 19.5981 8.16399 19.5981 7.23758C19.5981 6.31117 20.3517 5.55758 21.2781 5.55758C22.2045 5.55758 22.9581 6.31117 22.9581 7.23758C22.9581 8.16399 22.2045 8.91758 21.2781 8.91758Z" fill="CurrentColor"/>
</svg>
