<svg width="28" height="29" viewBox="0 0 28 29" fill="none" xmlns="http://www.w3.org/2000/svg">
<path d="M24.0464 7.83118C23.7888 5.60796 21.8904 3.87758 19.6 3.87758C19.18 3.87758 18.7712 3.93357 18.3736 4.05118C17.9424 2.01838 16.1448 0.517578 14 0.517578C11.8552 0.517578 10.0576 2.01837 9.6264 4.05118C9.22879 3.93357 8.82 3.87758 8.4 3.87758C6.10958 3.87758 4.21121 5.60796 3.9536 7.83118C1.73042 8.08876 0 9.98717 0 12.2776C0 14.7472 2.01042 16.7576 4.48 16.7576H5.04V26.8376C5.04 27.7616 5.79599 28.5176 6.72 28.5176H19.6C20.524 28.5176 21.28 27.7616 21.28 26.8376V22.9176C21.28 22.6096 21.028 22.3576 20.72 22.3576C20.412 22.3576 20.16 22.6096 20.16 22.9176V26.8376C20.16 27.1456 19.908 27.3976 19.6 27.3976H6.72C6.41201 27.3976 6.16 27.1456 6.16 26.8376V11.1576C6.16 10.8496 6.41201 10.5976 6.72 10.5976H19.6C19.908 10.5976 20.16 10.8496 20.16 11.1576V20.6776C20.16 20.9856 20.412 21.2376 20.72 21.2376C21.028 21.2376 21.28 20.9856 21.28 20.6776V16.7576H23.52C25.9896 16.7576 28 14.7472 28 12.2776C28 9.98716 26.2696 8.08876 24.0464 7.83118ZM23.52 15.6376H21.28V11.1576C21.28 10.2336 20.524 9.47758 19.6 9.47758H6.72C5.79599 9.47758 5.04 10.2336 5.04 11.1576V15.6376H4.48C2.6264 15.6376 1.12 14.1312 1.12 12.2776C1.12 10.424 2.6264 8.91758 4.48 8.91758C4.78799 8.91758 5.04 8.66557 5.04 8.35758C5.04 6.50398 6.5464 4.99758 8.4 4.99758C8.90401 4.99758 9.39121 5.10958 9.85042 5.32796C10.0184 5.41197 10.22 5.40076 10.3768 5.30557C10.5392 5.20478 10.64 5.03678 10.6512 4.84637C10.7296 3.04876 12.1968 1.63758 14 1.63758C15.8032 1.63758 17.2704 3.04876 17.3488 4.84637C17.36 5.03678 17.4608 5.20477 17.6232 5.30557C17.78 5.40076 17.9816 5.41197 18.1496 5.32796C18.6088 5.10959 19.096 4.99758 19.6 4.99758C21.4536 4.99758 22.96 6.50398 22.96 8.35758C22.96 8.66557 23.212 8.91758 23.52 8.91758C25.3736 8.91758 26.88 10.424 26.88 12.2776C26.88 14.1312 25.3736 15.6376 23.52 15.6376Z" fill="CurrentColor"/>
<path d="M10.08 19.5576C10.3893 19.5576 10.64 19.3069 10.64 18.9976C10.64 18.6883 10.3893 18.4376 10.08 18.4376C9.77072 18.4376 9.52 18.6883 9.52 18.9976C9.52 19.3069 9.77072 19.5576 10.08 19.5576Z" fill="CurrentColor"/>
<path d="M12.32 19.5576C12.6293 19.5576 12.88 19.3069 12.88 18.9976C12.88 18.6883 12.6293 18.4376 12.32 18.4376C12.0107 18.4376 11.76 18.6883 11.76 18.9976C11.76 19.3069 12.0107 19.5576 12.32 19.5576Z" fill="CurrentColor"/>
<path d="M19.04 13.3976C19.04 12.4736 18.284 11.7176 17.36 11.7176H8.96C8.03599 11.7176 7.28 12.4736 7.28 13.3976V15.6376C7.28 16.0688 7.44799 16.4608 7.71682 16.7576C7.44799 17.0544 7.28 17.4464 7.28 17.8776V20.1176C7.28 20.5488 7.44799 20.9408 7.71682 21.2376C7.44799 21.5344 7.28 21.9264 7.28 22.3576V24.5976C7.28 25.5216 8.03599 26.2776 8.96 26.2776H17.36C18.284 26.2776 19.04 25.5216 19.04 24.5976V22.3576C19.04 21.9264 18.872 21.5344 18.6032 21.2376C18.872 20.9408 19.04 20.5488 19.04 20.1176V17.8776C19.04 17.4464 18.872 17.0544 18.6032 16.7576C18.872 16.4608 19.04 16.0688 19.04 15.6376V13.3976ZM17.92 24.5976C17.92 24.9056 17.668 25.1576 17.36 25.1576H8.96C8.65201 25.1576 8.4 24.9056 8.4 24.5976V22.3576C8.4 22.0496 8.65201 21.7976 8.96 21.7976H17.36C17.668 21.7976 17.92 22.0496 17.92 22.3576V24.5976ZM17.92 20.1176C17.92 20.4256 17.668 20.6776 17.36 20.6776H8.96C8.65201 20.6776 8.4 20.4256 8.4 20.1176V17.8776C8.4 17.5696 8.65201 17.3176 8.96 17.3176H17.36C17.668 17.3176 17.92 17.5696 17.92 17.8776V20.1176ZM17.92 15.6376C17.92 15.9456 17.668 16.1976 17.36 16.1976H8.96C8.65201 16.1976 8.4 15.9456 8.4 15.6376V13.3976C8.4 13.0896 8.65201 12.8376 8.96 12.8376H17.36C17.668 12.8376 17.92 13.0896 17.92 13.3976V15.6376Z" fill="CurrentColor"/>
<path d="M10.08 15.0776C10.3893 15.0776 10.64 14.8269 10.64 14.5176C10.64 14.2083 10.3893 13.9576 10.08 13.9576C9.77072 13.9576 9.52 14.2083 9.52 14.5176C9.52 14.8269 9.77072 15.0776 10.08 15.0776Z" fill="CurrentColor"/>
<path d="M12.32 15.0776C12.6293 15.0776 12.88 14.8269 12.88 14.5176C12.88 14.2083 12.6293 13.9576 12.32 13.9576C12.0107 13.9576 11.76 14.2083 11.76 14.5176C11.76 14.8269 12.0107 15.0776 12.32 15.0776Z" fill="CurrentColor"/>
<path d="M10.08 24.0376C10.3893 24.0376 10.64 23.7869 10.64 23.4776C10.64 23.1683 10.3893 22.9176 10.08 22.9176C9.77072 22.9176 9.52 23.1683 9.52 23.4776C9.52 23.7869 9.77072 24.0376 10.08 24.0376Z" fill="CurrentColor"/>
<path d="M12.32 24.0376C12.6293 24.0376 12.88 23.7869 12.88 23.4776C12.88 23.1683 12.6293 22.9176 12.32 22.9176C12.0107 22.9176 11.76 23.1683 11.76 23.4776C11.76 23.7869 12.0107 24.0376 12.32 24.0376Z" fill="CurrentColor"/>
</svg>
