<svg width="28" height="29" viewBox="0 0 28 29" fill="none" xmlns="http://www.w3.org/2000/svg">
<path d="M11.2 20.6776C10.9665 20.6776 10.7576 20.8225 10.6755 21.0407L8.99555 25.5207C8.88726 25.8106 9.03383 26.1332 9.32312 26.242C9.61187 26.3492 9.93617 26.2043 10.0445 25.9145L10.3282 25.1576H12.0718L12.3555 25.9145C12.4627 26.2003 12.792 26.3474 13.0769 26.242C13.3662 26.1332 13.5127 25.8106 13.4045 25.5207L11.7245 21.0407C11.6424 20.8225 11.4335 20.6776 11.2 20.6776ZM10.7481 24.0376L11.2 22.8323L11.6519 24.0376H10.7481Z" fill="CurrentColor"/>
<path d="M14.9231 26.242C15.213 26.3492 15.5356 26.2043 15.6445 25.9145L15.9282 25.1576H17.6718L17.9555 25.9145C18.0607 26.195 18.3958 26.346 18.6769 26.242C18.9662 26.1332 19.1127 25.8105 19.0045 25.5207L17.3245 21.0407C17.2424 20.8225 17.0335 20.6776 16.8 20.6776C16.5665 20.6776 16.3576 20.8225 16.2756 21.0407L14.5956 25.5207C14.4873 25.8105 14.6338 26.1332 14.9231 26.242ZM16.8 22.8323L17.2519 24.0376H16.3481L16.8 22.8323Z" fill="CurrentColor"/>
<path d="M6.10859 21.7976H7.28C7.58953 21.7976 7.84 21.5471 7.84 21.2376C7.84 20.9281 7.58953 20.6776 7.28 20.6776H6.10859C5.21062 20.6776 4.48 21.4082 4.48 22.3062C4.48 22.9755 4.88195 23.5695 5.50374 23.8183L6.40007 24.177C6.59476 24.2547 6.72 24.4401 6.72 24.649C6.72 24.9295 6.49195 25.1576 6.2114 25.1576H5.04C4.73047 25.1576 4.48 25.408 4.48 25.7176C4.48 26.0271 4.73047 26.2776 5.04 26.2776H6.2114C7.10938 26.2776 7.84 25.547 7.84 24.649C7.84 23.9796 7.43805 23.3857 6.81625 23.1369L5.91992 22.7781C5.72523 22.7005 5.6 22.5151 5.6 22.3062C5.6 22.0256 5.82804 21.7976 6.10859 21.7976Z" fill="CurrentColor"/>
<path d="M21.8914 25.1576H20.72C20.4105 25.1576 20.16 25.4081 20.16 25.7176C20.16 26.0271 20.4105 26.2776 20.72 26.2776H21.8914C22.7894 26.2776 23.52 25.547 23.52 24.649C23.52 23.9796 23.118 23.3857 22.4963 23.1369L21.5999 22.7781C21.4052 22.7005 21.28 22.5151 21.28 22.3062C21.28 22.0256 21.508 21.7976 21.7886 21.7976H22.96C23.2695 21.7976 23.52 21.5471 23.52 21.2376C23.52 20.9281 23.2695 20.6776 22.96 20.6776H21.7886C20.8906 20.6776 20.16 21.4082 20.16 22.3062C20.16 22.9756 20.562 23.5695 21.1837 23.8183L22.0801 24.177C22.2748 24.2547 22.4 24.4401 22.4 24.649C22.4 24.9295 22.1719 25.1576 21.8914 25.1576Z" fill="CurrentColor"/>
<path d="M24.0464 15.1112C23.9512 14.26 23.5984 13.476 23.0552 12.8152C23.1952 12.384 23.4864 12.0088 23.9008 11.7736C24.4832 11.432 25.1888 11.432 25.7768 11.7736C26.0446 11.9291 26.3856 11.8306 26.5384 11.5664L27.6584 9.62879C27.8105 9.36566 27.7236 9.01234 27.4568 8.86156C26.8688 8.52557 26.516 7.91516 26.516 7.23758C26.516 6.56 26.8688 5.94964 27.4567 5.61361C27.7194 5.4635 27.8169 5.10675 27.6584 4.84637L26.5384 2.90877C26.3829 2.6397 26.0455 2.54968 25.7768 2.70156C25.1888 3.04318 24.4832 3.04318 23.9008 2.70156C23.3128 2.36557 22.96 1.75516 22.96 1.07758C22.96 0.769584 22.708 0.517578 22.4 0.517578H20.16C19.852 0.517578 19.6 0.769584 19.6 1.07758C19.6 1.75516 19.2472 2.36557 18.6592 2.70156C18.0769 3.04316 17.3713 3.04318 16.7833 2.70162C16.5143 2.54538 16.1749 2.64294 16.0216 2.90875L14.9016 4.84636C14.75 5.10867 14.8355 5.46225 15.1032 5.61356C15.6912 5.94958 16.044 6.55996 16.044 7.23757C16.044 7.57917 15.9544 7.89837 15.792 8.17837C15.232 7.93197 14.6216 7.79757 14 7.79757C11.8552 7.79757 10.0576 9.29837 9.6264 11.3312C9.22879 11.2136 8.82 11.1576 8.4 11.1576C6.10958 11.1576 4.21121 12.888 3.9536 15.1112C1.73042 15.3688 0 17.2672 0 19.5576C0 21.1816 0.851211 22.6264 2.24 23.4216V26.8376C2.24 27.7616 2.99599 28.5176 3.92 28.5176H12.88C13.188 28.5176 13.44 28.2656 13.44 27.9576C13.44 27.6496 13.188 27.3976 12.88 27.3976H3.92C3.612 27.3976 3.36 27.1456 3.36 26.8376V20.1176C3.36 19.8096 3.612 19.5576 3.92 19.5576H24.08C24.388 19.5576 24.64 19.8096 24.64 20.1176V26.8376C24.64 27.1456 24.388 27.3976 24.08 27.3976H15.12C14.812 27.3976 14.56 27.6496 14.56 27.9576C14.56 28.2656 14.812 28.5176 15.12 28.5176H24.08C25.004 28.5176 25.76 27.7616 25.76 26.8376V23.4216C27.1488 22.6264 28 21.1816 28 19.5576C28 17.2672 26.2696 15.3688 24.0464 15.1112ZM16.1224 4.96958L16.7384 3.90557C17.5504 4.19678 18.4464 4.11837 19.2192 3.67038C19.9976 3.22796 20.5128 2.48876 20.6696 1.63758H21.8904C22.0472 2.48876 22.5624 3.22797 23.3408 3.67038C24.1136 4.11838 25.0096 4.19678 25.8216 3.90557L26.4376 4.96958C25.7768 5.52958 25.396 6.34716 25.396 7.23758C25.396 8.128 25.7768 8.94557 26.4376 9.50557L25.8216 10.5696C25.0096 10.2784 24.1136 10.3568 23.3408 10.8048C22.5624 11.2472 22.0472 11.9864 21.8904 12.8376H20.6696C20.5128 11.9864 19.9976 11.2472 19.2192 10.8048C18.4464 10.3568 17.5504 10.2784 16.7384 10.5696L16.1224 9.50557C16.7832 8.94557 17.164 8.12796 17.164 7.23758C17.164 6.3472 16.7832 5.52958 16.1224 4.96958ZM25.76 22.0664V20.1176C25.76 19.1936 25.004 18.4376 24.08 18.4376H3.92C2.99598 18.4376 2.23999 19.1936 2.23999 20.1176V22.0664C1.53439 21.4392 1.11999 20.5432 1.11999 19.5576C1.11999 17.704 2.62639 16.1976 4.48 16.1976C4.78799 16.1976 5.04 15.9456 5.04 15.6376C5.04 13.784 6.5464 12.2776 8.4 12.2776C8.90401 12.2776 9.39121 12.3896 9.85041 12.608C10.0184 12.692 10.22 12.6808 10.3768 12.5856C10.5392 12.4904 10.64 12.3168 10.6512 12.1264C10.7296 10.3288 12.1968 8.91758 14 8.91758C14.3136 8.91758 14.6216 8.96236 14.9184 9.04637C14.8904 9.09679 14.8568 9.14716 14.8456 9.20319C14.8064 9.34319 14.8232 9.49997 14.9016 9.62876L16.0216 11.5664C16.1761 11.8337 16.5133 11.9261 16.7832 11.7736C17.3712 11.432 18.0768 11.432 18.6592 11.7736C19.2472 12.1096 19.6 12.72 19.6 13.3976C19.6 13.7056 19.852 13.9576 20.16 13.9576H22.4C22.428 13.9576 22.456 13.9464 22.484 13.9408C22.792 14.4504 22.96 15.0328 22.96 15.6376C22.96 15.9456 23.212 16.1976 23.52 16.1976C25.3736 16.1976 26.88 17.704 26.88 19.5576C26.88 20.5432 26.4656 21.4392 25.76 22.0664Z" fill="CurrentColor"/>
<path d="M21.28 10.0376C22.8238 10.0376 24.08 8.78141 24.08 7.23758C24.08 5.69375 22.8238 4.43758 21.28 4.43758C19.7362 4.43758 18.48 5.69375 18.48 7.23758C18.48 8.78141 19.7362 10.0376 21.28 10.0376ZM21.28 5.55758C22.2064 5.55758 22.96 6.31117 22.96 7.23758C22.96 8.16399 22.2064 8.91758 21.28 8.91758C20.3536 8.91758 19.6 8.16399 19.6 7.23758C19.6 6.31117 20.3536 5.55758 21.28 5.55758Z" fill="CurrentColor"/>
</svg>
