<svg width="16" height="17" viewBox="0 0 16 17" fill="none" xmlns="http://www.w3.org/2000/svg">
<path d="M13.7423 8.36088C13.6853 7.87664 13.4847 7.42686 13.1739 7.05047C13.2537 6.80268 13.4206 6.59051 13.6561 6.45463C13.9915 6.26026 14.3923 6.26088 14.7284 6.45462C14.8805 6.5423 15.0781 6.48864 15.1656 6.33744L15.8056 5.2287C15.8933 5.0768 15.84 4.87921 15.6884 4.79151C15.3526 4.59776 15.1522 4.25089 15.1522 3.86307C15.1522 3.47528 15.3526 3.12843 15.6884 2.93467C15.8402 2.84703 15.8931 2.64917 15.8056 2.49745L15.1656 1.3887C15.0782 1.23721 14.88 1.18381 14.7284 1.27151C14.3925 1.46526 13.9917 1.46526 13.6561 1.27151C13.3203 1.07776 13.12 0.730572 13.12 0.343071C13.12 0.166198 12.9767 0.0230713 12.8 0.0230713H11.52C11.3433 0.0230713 11.2 0.166198 11.2 0.343071C11.2 0.730572 10.9997 1.07776 10.6639 1.27151C10.3284 1.46588 9.92768 1.46526 9.5916 1.27153C9.43952 1.18387 9.24201 1.23726 9.15437 1.3887L8.51437 2.49745C8.42672 2.64929 8.48032 2.84711 8.63156 2.93464C8.96734 3.12839 9.16781 3.47526 9.16781 3.86307C9.16781 4.05737 9.11742 4.24136 9.02498 4.40098C8.70525 4.25948 8.35656 4.18307 8 4.18307C6.77391 4.18307 5.74828 5.04057 5.50109 6.20151C5.27359 6.1362 5.03906 6.10307 4.8 6.10307C3.49062 6.10307 2.40781 7.0912 2.25781 8.36088C0.988124 8.51088 0 9.5937 0 10.9031C0 12.3146 1.14844 13.4631 2.56 13.4631H3.52C3.69672 13.4631 3.84 13.3199 3.84 13.1431C3.84 12.9662 3.69672 12.8231 3.52 12.8231H2.56C1.50125 12.8231 0.64 11.9618 0.64 10.9031C0.64 9.84432 1.50125 8.98307 2.56 8.98307C2.73672 8.98307 2.88 8.83995 2.88 8.66307C2.88 7.60432 3.74125 6.74307 4.8 6.74307C5.08685 6.74307 5.36542 6.80681 5.62822 6.93273C5.83244 7.03059 6.07657 6.88368 6.08609 6.65776C6.13047 5.62901 6.97109 4.82307 8 4.82307C8.16885 4.82307 8.35958 4.83709 8.51867 4.89958C8.47367 5.01221 8.44869 5.11478 8.51437 5.2287L9.15437 6.33744C9.24108 6.48767 9.44189 6.5398 9.59156 6.45463C9.9275 6.26088 10.3283 6.26088 10.6639 6.45463C10.9997 6.64839 11.2 6.99557 11.2 7.38307C11.2 7.55995 11.3433 7.70307 11.52 7.70307H12.8C12.8176 7.70307 12.8328 7.69579 12.8497 7.69305C13.0227 7.98413 13.12 8.31577 13.12 8.66307C13.12 8.83995 13.2633 8.98307 13.44 8.98307C14.4987 8.98307 15.36 9.84432 15.36 10.9031C15.36 11.9618 14.4987 12.8231 13.44 12.8231H10.0505L10.5164 12.0243C10.5742 11.9253 10.5745 11.8031 10.5175 11.7037C10.4605 11.6043 10.3545 11.5431 10.24 11.5431H8.95999V8.66308C8.95999 8.4862 8.81671 8.34308 8.63999 8.34308H7.35999C7.18327 8.34308 7.03999 8.4862 7.03999 8.66308V11.5431H5.75999C5.64546 11.5431 5.53953 11.6043 5.48249 11.7037C5.42546 11.8031 5.42577 11.9253 5.48359 12.0243L5.94952 12.8231H4.79999C4.62327 12.8231 4.47999 12.9662 4.47999 13.1431C4.47999 13.3199 4.62327 13.4631 4.79999 13.4631H6.32286L7.72358 15.8643C7.78093 15.9628 7.88624 16.0231 7.99999 16.0231C8.11374 16.0231 8.21905 15.9628 8.2764 15.8643L9.67712 13.4631H13.44C14.8515 13.4631 16 12.3146 16 10.9031C16 9.5937 15.0119 8.51088 13.7423 8.36088ZM12.5092 7.06307H11.8108C11.7206 6.57651 11.4256 6.15526 10.9839 5.90026C10.5425 5.64526 10.0297 5.60026 9.56328 5.76557L9.21406 5.16057C9.59047 4.83932 9.80781 4.37307 9.80781 3.86307C9.80781 3.35307 9.59047 2.88682 9.21406 2.56557L9.56328 1.96057C10.0297 2.12588 10.5425 2.08057 10.9839 1.82588C11.4256 1.57088 11.7206 1.14963 11.8108 0.663071H12.5092C12.5994 1.14963 12.8944 1.57088 13.3361 1.82588C13.7776 2.08057 14.29 2.12588 14.7567 1.96057L15.1059 2.56557C14.7295 2.88682 14.5122 3.35307 14.5122 3.86307C14.5122 4.37307 14.7295 4.83932 15.1059 5.16057L14.7567 5.76557C14.29 5.60026 13.7776 5.64526 13.3361 5.90026C12.8944 6.15526 12.5994 6.57651 12.5092 7.06307ZM8 15.0681L6.31718 12.1831H7.36C7.53672 12.1831 7.68 12.0399 7.68 11.8631V8.98307H8.31999V11.8631C8.31999 12.0399 8.46327 12.1831 8.64 12.1831H9.68281L8 15.0681Z" fill="CurrentColor"/>
<path d="M12.16 2.26307C11.2778 2.26307 10.56 2.98088 10.56 3.86307C10.56 4.74526 11.2778 5.46307 12.16 5.46307C13.0422 5.46307 13.76 4.74526 13.76 3.86307C13.76 2.98088 13.0422 2.26307 12.16 2.26307ZM12.16 4.82307C11.6306 4.82307 11.2 4.39245 11.2 3.86307C11.2 3.33369 11.6306 2.90307 12.16 2.90307C12.6894 2.90307 13.12 3.33369 13.12 3.86307C13.12 4.39245 12.6894 4.82307 12.16 4.82307Z" fill="CurrentColor"/>
</svg>
