<svg width="28" height="29" viewBox="0 0 28 29" fill="none" xmlns="http://www.w3.org/2000/svg">
<path d="M24.0491 15.1087C23.9492 14.2613 23.5982 13.4742 23.0543 12.8155C23.194 12.3819 23.486 12.0106 23.8982 11.7728C24.4852 11.4327 25.1866 11.4337 25.7747 11.7728C26.0409 11.9262 26.3867 11.8323 26.5398 11.5677L27.6598 9.62742C27.8133 9.36161 27.7199 9.01582 27.4548 8.86234C26.8671 8.52328 26.5163 7.91625 26.5163 7.23758C26.5163 6.55895 26.8671 5.95195 27.4546 5.61288C27.7204 5.45951 27.8129 5.11325 27.6598 4.84773L26.5398 2.90743C26.3868 2.64232 26.0399 2.54887 25.7747 2.70234C25.1869 3.04141 24.4855 3.04141 23.8982 2.70234C23.3105 2.36328 22.96 1.7557 22.96 1.07758C22.96 0.768049 22.7092 0.517578 22.4 0.517578H20.16C19.8507 0.517578 19.6 0.768049 19.6 1.07758C19.6 1.7557 19.2494 2.36328 18.6618 2.70234C18.0748 3.04249 17.3734 3.04141 16.7853 2.70238C16.5192 2.54897 16.1735 2.6424 16.0202 2.90742L14.9002 4.84773C14.7468 5.11346 14.8406 5.45965 15.1052 5.61282C15.6928 5.95188 16.0437 6.55891 16.0437 7.23758C16.0437 7.5776 15.9555 7.89958 15.7937 8.17893C15.2342 7.93129 14.624 7.79758 14 7.79758C11.8543 7.79758 10.0595 9.29821 9.62691 11.3298C9.22879 11.2156 8.81836 11.1576 8.4 11.1576C6.10859 11.1576 4.21367 12.8868 3.95117 15.1088C1.72922 15.3713 0 17.2662 0 19.5576C0 22.0278 2.00977 24.0376 4.48 24.0376H6.16C6.46926 24.0376 6.72 23.7871 6.72 23.4776C6.72 23.1681 6.46926 22.9176 6.16 22.9176H4.48C2.62719 22.9176 1.12 21.4104 1.12 19.5576C1.12 17.7048 2.62719 16.1976 4.48 16.1976C4.78926 16.1976 5.04 15.9471 5.04 15.6376C5.04 13.7848 6.54719 12.2776 8.4 12.2776C8.90199 12.2776 9.38949 12.3891 9.84938 12.6095C10.2068 12.7807 10.634 12.5236 10.6507 12.1283C10.7283 10.328 12.1994 8.91758 14 8.91758C14.2955 8.91758 14.6293 8.9421 14.9077 9.05147C14.8289 9.24857 14.7852 9.42807 14.9002 9.62743L16.0201 11.5677C16.1719 11.8306 16.5233 11.9218 16.7852 11.7728C17.3731 11.4338 18.0745 11.4338 18.6618 11.7728C19.2494 12.1119 19.6 12.7195 19.6 13.3976C19.6 13.7071 19.8507 13.9576 20.16 13.9576H22.4C22.4308 13.9576 22.4574 13.9448 22.4869 13.94C22.7897 14.4494 22.96 15.0298 22.96 15.6376C22.96 15.9471 23.2107 16.1976 23.52 16.1976C25.3728 16.1976 26.88 17.7048 26.88 19.5576C26.88 21.4104 25.3728 22.9176 23.52 22.9176H17.5883L18.4037 21.5198C18.5049 21.3464 18.5054 21.1326 18.4056 20.9587C18.3058 20.7848 18.1204 20.6776 17.92 20.6776H15.68V15.6376C15.68 15.3281 15.4292 15.0776 15.12 15.0776H12.88C12.5707 15.0776 12.32 15.3281 12.32 15.6376V20.6776H10.08C9.87956 20.6776 9.69417 20.7848 9.59436 20.9587C9.49455 21.1326 9.4951 21.3464 9.59628 21.5198L10.4117 22.9176H8.39998C8.09072 22.9176 7.83998 23.1681 7.83998 23.4776C7.83998 23.7871 8.09072 24.0376 8.39998 24.0376H11.065L13.5163 28.2398C13.6166 28.412 13.8009 28.5176 14 28.5176C14.199 28.5176 14.3833 28.412 14.4837 28.2398L16.935 24.0376H23.52C25.9902 24.0376 28 22.0278 28 19.5576C28 17.2662 26.2708 15.3712 24.0491 15.1087ZM21.8911 12.8376H20.6689C20.5111 11.9861 19.9948 11.2489 19.2218 10.8027C18.4494 10.3564 17.5519 10.2777 16.7357 10.5669L16.1246 9.5082C16.7833 8.94601 17.1637 8.13008 17.1637 7.23758C17.1637 6.34508 16.7833 5.52914 16.1246 4.96695L16.7357 3.9082C17.5519 4.1975 18.4494 4.1182 19.2218 3.6725C19.9948 3.22625 20.5111 2.48906 20.6689 1.63758H21.8911C22.0489 2.48906 22.5651 3.22625 23.3382 3.6725C24.1109 4.1182 25.0075 4.1975 25.8242 3.9082L26.4354 4.96695C25.7767 5.52914 25.3963 6.34508 25.3963 7.23758C25.3963 8.13008 25.7767 8.94601 26.4354 9.5082L25.8242 10.5669C25.0075 10.2777 24.1109 10.3564 23.3382 10.8027C22.5651 11.2489 22.0489 11.9861 21.8911 12.8376ZM14 26.8463L11.0551 21.7976H12.88C13.1893 21.7976 13.44 21.5471 13.44 21.2376V16.1976H14.56V21.2376C14.56 21.5471 14.8107 21.7976 15.12 21.7976H16.9449L14 26.8463Z" fill="CurrentColor"/>
<path d="M21.28 4.43758C19.7362 4.43758 18.48 5.69375 18.48 7.23758C18.48 8.78141 19.7362 10.0376 21.28 10.0376C22.8238 10.0376 24.08 8.78141 24.08 7.23758C24.08 5.69375 22.8238 4.43758 21.28 4.43758ZM21.28 8.91758C20.3536 8.91758 19.6 8.16398 19.6 7.23758C19.6 6.31117 20.3536 5.55758 21.28 5.55758C22.2064 5.55758 22.96 6.31117 22.96 7.23758C22.96 8.16398 22.2064 8.91758 21.28 8.91758Z" fill="CurrentColor"/>
</svg>
