<svg width="30" height="25" viewBox="0 0 30 25" fill="none" xmlns="http://www.w3.org/2000/svg">
<path d="M13.8229 20.4015L12.1086 15.8301C12.0229 15.6073 11.8114 15.4587 11.5714 15.4587C11.3315 15.4587 11.12 15.6073 11.0343 15.8301L9.32001 20.4015C9.21144 20.6987 9.36002 21.0244 9.65717 21.1387C9.95429 21.2473 10.28 21.0987 10.3943 20.8015L10.68 20.0301H12.4629L12.7486 20.8015C12.8562 21.0922 13.1965 21.2438 13.4857 21.1387C13.7829 21.0244 13.9314 20.6987 13.8229 20.4015ZM11.1086 18.8873L11.5714 17.6587L12.0343 18.8873H11.1086Z" fill="CurrentColor"/>
<path d="M16.7143 15.4587H15.5714C15.2572 15.4587 15 15.7159 15 16.0301V20.6016C15 20.9158 15.2572 21.173 15.5714 21.173C15.8857 21.173 16.1429 20.9158 16.1429 20.6016V18.8873H16.7143C17.6572 18.8873 18.4286 18.1158 18.4286 17.173C18.4286 16.2302 17.6572 15.4587 16.7143 15.4587ZM16.7143 17.7444H16.1429V16.6016H16.7143C17.0286 16.6016 17.2857 16.8587 17.2857 17.173C17.2857 17.4873 17.0286 17.7444 16.7143 17.7444Z" fill="CurrentColor"/>
<path d="M20.7143 20.6016V16.0301C20.7143 15.7146 20.4584 15.4587 20.1429 15.4587C19.8273 15.4587 19.5714 15.7146 19.5714 16.0301V20.6016C19.5714 20.9171 19.8273 21.173 20.1429 21.173C20.4584 21.173 20.7143 20.9171 20.7143 20.6016Z" fill="CurrentColor"/>
<path d="M25.2514 15.493C25.1543 14.6244 24.7943 13.8244 24.24 13.1501C24.3829 12.7101 24.68 12.3273 25.1029 12.0873C25.6971 11.7387 26.4171 11.7387 27.0172 12.0873C27.2857 12.2416 27.64 12.1501 27.7943 11.8758L28.9372 9.89868C29.0892 9.62977 29.0055 9.27072 28.7315 9.11583C28.1314 8.77298 27.7714 8.15011 27.7714 7.45871C27.7714 6.76727 28.1314 6.14442 28.7315 5.80153C29.0034 5.64781 29.0921 5.28669 28.9372 5.01869L27.7943 3.04154C27.64 2.76727 27.2857 2.67013 27.0172 2.83011C26.4171 3.17871 25.6971 3.17871 25.1029 2.83011C24.5029 2.48727 24.1429 1.8644 24.1429 1.17299C24.1429 0.858711 23.8857 0.601562 23.5714 0.601562H21.2857C20.9714 0.601562 20.7143 0.858711 20.7143 1.17299C20.7143 1.8644 20.3543 2.48727 19.7543 2.83011C19.16 3.17871 18.44 3.17871 17.84 2.83011C17.5657 2.67013 17.2172 2.76726 17.0629 3.04154L15.92 5.01873C15.7677 5.28809 15.8519 5.64509 16.1257 5.80155C16.7257 6.14443 17.0857 6.76727 17.0857 7.45871C17.0857 7.80727 16.9943 8.13299 16.8286 8.4187C16.2572 8.16727 15.6343 8.03013 15 8.03013C12.8114 8.03013 10.9772 9.56156 10.5372 11.6358C10.1314 11.5158 9.71429 11.4587 9.28572 11.4587C6.94856 11.4587 5.01145 13.2244 4.74858 15.493C2.48003 15.7558 0.714294 17.693 0.714294 20.0301C0.714294 22.5501 2.76574 24.6016 5.28572 24.6016H10.4286C10.7429 24.6016 11 24.3444 11 24.0301C11 23.7159 10.7429 23.4587 10.4286 23.4587H5.28572C3.39429 23.4587 1.85715 21.9216 1.85715 20.0301C1.85715 18.1387 3.39429 16.6016 5.28572 16.6016C5.6 16.6016 5.85715 16.3444 5.85715 16.0301C5.85715 14.1387 7.39429 12.6016 9.28572 12.6016C9.80002 12.6016 10.2972 12.7159 10.7657 12.9387C10.9372 13.0244 11.1429 13.013 11.3029 12.9158C11.4686 12.813 11.5714 12.6416 11.5829 12.4473C11.6628 10.613 13.16 9.17299 15 9.17299C15.32 9.17299 15.6343 9.21868 15.9372 9.30441C15.9086 9.35585 15.8743 9.40726 15.8629 9.46443C15.8229 9.61297 15.8457 9.76727 15.92 9.89868L17.0629 11.8758C17.2172 12.1501 17.5657 12.2416 17.84 12.0873C18.44 11.7387 19.16 11.7387 19.7543 12.0873C20.3543 12.4301 20.7143 13.053 20.7143 13.7444C20.7143 14.0587 20.9714 14.3158 21.2857 14.3158H23.5714C23.6057 14.3158 23.6286 14.3044 23.6629 14.2987C23.9714 14.8187 24.1429 15.4073 24.1429 16.0301C24.1429 16.3444 24.4 16.6016 24.7143 16.6016C26.6057 16.6016 28.1429 18.1387 28.1429 20.0301C28.1429 21.9216 26.6057 23.4587 24.7143 23.4587H12.7143C12.4 23.4587 12.1429 23.7159 12.1429 24.0301C12.1429 24.3444 12.4 24.6016 12.7143 24.6016H24.7143C27.2343 24.6016 29.2857 22.5501 29.2857 20.0301C29.2857 17.693 27.52 15.7558 25.2514 15.493ZM23.0515 13.173H21.8057C21.6457 12.3044 21.12 11.5501 20.3257 11.0987C19.5429 10.6416 18.6229 10.5616 17.7943 10.853L17.1657 9.77871C17.84 9.20156 18.2286 8.36727 18.2286 7.45871C18.2286 6.55016 17.84 5.71586 17.1657 5.13871L17.7943 4.06443C18.6229 4.35586 19.5429 4.27585 20.3257 3.81872C21.12 3.36727 21.6457 2.61297 21.8057 1.74443H23.0515C23.2114 2.61298 23.7371 3.36727 24.5314 3.81872C25.3143 4.27585 26.2343 4.35586 27.0629 4.06443L27.6915 5.13871C27.0172 5.71586 26.6286 6.55012 26.6286 7.45871C26.6286 8.3673 27.0172 9.20156 27.6915 9.77871L27.0629 10.853C26.2343 10.5616 25.32 10.6416 24.5314 11.0987C23.7372 11.5501 23.2114 12.3044 23.0515 13.173Z" fill="CurrentColor"/>
<path d="M22.4286 4.60156C20.8533 4.60156 19.5714 5.88337 19.5714 7.45871C19.5714 9.03404 20.8533 10.3158 22.4286 10.3158C24.0039 10.3158 25.2857 9.03404 25.2857 7.45871C25.2857 5.88337 24.0039 4.60156 22.4286 4.60156ZM22.4286 9.17299C21.4833 9.17299 20.7143 8.40402 20.7143 7.45871C20.7143 6.51339 21.4833 5.74442 22.4286 5.74442C23.3739 5.74442 24.1429 6.51339 24.1429 7.45871C24.1429 8.40402 23.3739 9.17299 22.4286 9.17299Z" fill="CurrentColor"/>
</svg>
