<svg width="32" height="33" viewBox="0 0 32 33" fill="none" xmlns="http://www.w3.org/2000/svg">
<path d="M29.44 20.1584C28.2496 20.1584 27.2576 20.9775 26.9696 22.0784H26.24C25.888 22.0784 25.6 21.7904 25.6 21.4384V18.8784H26.88C29.7024 18.8784 32 16.5807 32 13.7584C32 11.1407 30.0224 8.97113 27.4816 8.67676C27.1872 6.13594 25.0176 4.15836 22.4 4.15836C21.92 4.15836 21.4528 4.22235 20.9984 4.35676C20.5056 2.03356 18.4512 0.318359 16 0.318359C13.5488 0.318359 11.4944 2.03355 11.0016 4.35676C10.5472 4.22235 10.08 4.15836 9.6 4.15836C6.98238 4.15836 4.81281 6.13594 4.5184 8.67676C1.97762 8.97113 0 11.1407 0 13.7584C0 16.5807 2.29762 18.8784 5.12 18.8784H6.4V21.4384C6.4 21.7904 6.11199 22.0784 5.76 22.0784H5.03039C4.74239 20.9775 3.75039 20.1584 2.56 20.1584C1.14559 20.1584 0 21.3039 0 22.7184C0 24.1328 1.14559 25.2784 2.56 25.2784C3.75039 25.2784 4.74238 24.4591 5.03039 23.3584H5.76C6.81601 23.3584 7.68 22.4943 7.68 21.4384V18.8784H12.16V20.7984C12.16 21.1504 12.448 21.4384 12.8 21.4384C13.152 21.4384 13.44 21.1504 13.44 20.7984V18.8784H15.36V27.288C14.2592 27.5759 13.44 28.568 13.44 29.7584C13.44 31.1727 14.5856 32.3184 16 32.3184C17.4144 32.3184 18.56 31.1727 18.56 29.7584C18.56 28.568 17.7408 27.5759 16.64 27.288V18.8784H18.56V25.9184C18.56 26.9743 19.424 27.8384 20.48 27.8384H21.2096C21.4976 28.9391 22.4896 29.7584 23.68 29.7584C25.0944 29.7584 26.24 28.6127 26.24 27.1984C26.24 25.784 25.0944 24.6384 23.68 24.6384C22.4896 24.6384 21.4976 25.4575 21.2096 26.5584H20.48C20.128 26.5584 19.84 26.2704 19.84 25.9184V18.8784H24.32V21.4384C24.32 22.4943 25.184 23.3584 26.24 23.3584H26.9696C27.2576 24.4591 28.2496 25.2784 29.44 25.2784C30.8544 25.2784 32 24.1327 32 22.7184C32 21.304 30.8544 20.1584 29.44 20.1584ZM2.56 23.9984C1.85601 23.9984 1.28 23.4223 1.28 22.7184C1.28 22.0143 1.85601 21.4384 2.56 21.4384C3.26399 21.4384 3.84 22.0143 3.84 22.7184C3.84 23.4223 3.26399 23.9984 2.56 23.9984ZM23.68 25.9184C24.384 25.9184 24.96 26.4943 24.96 27.1984C24.96 27.9023 24.384 28.4784 23.68 28.4784C22.976 28.4784 22.4 27.9023 22.4 27.1984C22.4 26.4943 22.976 25.9184 23.68 25.9184ZM17.28 29.7584C17.28 30.4623 16.704 31.0384 16 31.0384C15.296 31.0384 14.72 30.4623 14.72 29.7584C14.72 29.0543 15.296 28.4784 16 28.4784C16.704 28.4784 17.28 29.0543 17.28 29.7584ZM5.12 17.5984C3.0016 17.5984 1.28 15.8768 1.28 13.7584C1.28 11.64 3.0016 9.91836 5.12 9.91836C5.47199 9.91836 5.76 9.63035 5.76 9.27836C5.76 7.15996 7.4816 5.43836 9.6 5.43836C10.176 5.43836 10.7328 5.56637 11.2576 5.81594C11.4496 5.91195 11.68 5.89914 11.8592 5.79035C12.0448 5.68157 12.16 5.48317 12.1728 5.26555C12.2624 3.21113 13.9392 1.59836 16 1.59836C18.0608 1.59836 19.7376 3.21113 19.8272 5.26555C19.84 5.48317 19.9552 5.68156 20.1408 5.79035C20.32 5.89914 20.5504 5.91195 20.7424 5.81594C21.2672 5.56637 21.824 5.43836 22.4 5.43836C24.5184 5.43836 26.24 7.15996 26.24 9.27836C26.24 9.63035 26.528 9.91836 26.88 9.91836C28.9984 9.91836 30.72 11.64 30.72 13.7584C30.72 15.8768 28.9984 17.5984 26.88 17.5984H5.12ZM29.44 23.9984C28.736 23.9984 28.16 23.4223 28.16 22.7184C28.16 22.0143 28.736 21.4384 29.44 21.4384C30.144 21.4384 30.72 22.0143 30.72 22.7184C30.72 23.4223 30.144 23.9984 29.44 23.9984Z" fill="url(#paint0_linear_1_530)"/>
<path d="M13.44 23.3584C13.44 23.0046 13.1534 22.7184 12.8 22.7184C12.4466 22.7184 12.16 23.0046 12.16 23.3584V25.9184C12.16 26.2715 11.8728 26.5584 11.52 26.5584H10.7891C10.5029 25.4572 9.50934 24.6384 8.32 24.6384C6.90843 24.6384 5.76 25.7865 5.76 27.1984C5.76 28.6102 6.90843 29.7584 8.32 29.7584C9.50934 29.7584 10.5029 28.9395 10.7891 27.8384H11.52C12.5788 27.8384 13.44 26.9771 13.44 25.9184V23.3584ZM8.32 28.4784C7.61406 28.4784 7.04 27.904 7.04 27.1984C7.04 26.4927 7.61406 25.9184 8.32 25.9184C9.02594 25.9184 9.6 26.4927 9.6 27.1984C9.6 27.904 9.02594 28.4784 8.32 28.4784Z" fill="url(#paint1_linear_1_530)"/>
<path d="M13.4016 15.4543L11.4816 10.3343C11.3856 10.0848 11.1488 9.91836 10.88 9.91836C10.6112 9.91836 10.3744 10.0848 10.2784 10.3343L8.3584 15.4543C8.2368 15.7871 8.40321 16.152 8.73602 16.28C9.06879 16.4016 9.4336 16.2352 9.56161 15.9023L9.88161 15.0384H11.8784L12.1984 15.9023C12.319 16.228 12.6999 16.3978 13.024 16.28C13.3568 16.1519 13.5232 15.7871 13.4016 15.4543ZM10.3616 13.7584L10.88 12.3823L11.3984 13.7584H10.3616Z" fill="url(#paint2_linear_1_530)"/>
<path d="M16.64 9.91836H15.36C15.008 9.91836 14.72 10.2064 14.72 10.5584V15.6784C14.72 16.0304 15.008 16.3184 15.36 16.3184C15.712 16.3184 16 16.0304 16 15.6784V13.7584H16.64C17.696 13.7584 18.56 12.8943 18.56 11.8384C18.56 10.7824 17.696 9.91836 16.64 9.91836ZM16.64 12.4784H16V11.1984H16.64C16.992 11.1984 17.28 11.4864 17.28 11.8384C17.28 12.1904 16.992 12.4784 16.64 12.4784Z" fill="url(#paint3_linear_1_530)"/>
<path d="M21.76 9.91836H20.48C20.128 9.91836 19.84 10.2064 19.84 10.5584V15.6784C19.84 16.0304 20.128 16.3184 20.48 16.3184C20.832 16.3184 21.12 16.0304 21.12 15.6784V13.7584H21.76C22.816 13.7584 23.68 12.8943 23.68 11.8384C23.68 10.7824 22.816 9.91836 21.76 9.91836ZM21.76 12.4784H21.12V11.1984H21.76C22.112 11.1984 22.4 11.4864 22.4 11.8384C22.4 12.1904 22.112 12.4784 21.76 12.4784Z" fill="url(#paint4_linear_1_530)"/>
<defs>
<linearGradient id="paint0_linear_1_530" x1="0.73678" y1="32.3184" x2="32" y2="32.3184" gradientUnits="userSpaceOnUse">
<stop stop-color="#98C1FF"/>
<stop offset="1" stop-color="#267DFF"/>
</linearGradient>
<linearGradient id="paint1_linear_1_530" x1="0.73678" y1="32.3184" x2="32" y2="32.3184" gradientUnits="userSpaceOnUse">
<stop stop-color="#98C1FF"/>
<stop offset="1" stop-color="#267DFF"/>
</linearGradient>
<linearGradient id="paint2_linear_1_530" x1="0.73678" y1="32.3184" x2="32" y2="32.3184" gradientUnits="userSpaceOnUse">
<stop stop-color="#98C1FF"/>
<stop offset="1" stop-color="#267DFF"/>
</linearGradient>
<linearGradient id="paint3_linear_1_530" x1="0.73678" y1="32.3184" x2="32" y2="32.3184" gradientUnits="userSpaceOnUse">
<stop stop-color="#98C1FF"/>
<stop offset="1" stop-color="#267DFF"/>
</linearGradient>
<linearGradient id="paint4_linear_1_530" x1="0.73678" y1="32.3184" x2="32" y2="32.3184" gradientUnits="userSpaceOnUse">
<stop stop-color="#98C1FF"/>
<stop offset="1" stop-color="#267DFF"/>
</linearGradient>
</defs>
</svg>
