<svg width="16" height="17" viewBox="0 0 16 17" fill="none" xmlns="http://www.w3.org/2000/svg">
<path d="M13.7422 4.20088C13.5922 2.9312 12.5094 1.94307 11.2 1.94307C10.9613 1.94307 10.7266 1.97604 10.4991 2.04151C10.2519 0.880572 9.22625 0.0230713 8 0.0230713C6.77375 0.0230713 5.74812 0.880572 5.50094 2.04151C5.27344 1.97604 5.03875 1.94307 4.8 1.94307C3.49062 1.94307 2.40781 2.9312 2.25781 4.20088C0.988125 4.35088 0 5.4337 0 6.74307C0 8.15463 1.14844 9.30307 2.56 9.30307H3.14291C2.97523 9.80909 2.88 10.3461 2.88 10.9031C2.88 13.7262 5.17687 16.0231 8 16.0231C10.8231 16.0231 13.12 13.7262 13.12 10.9031C13.12 10.3461 13.0248 9.80909 12.8571 9.30307H13.44C14.8516 9.30307 16 8.15463 16 6.74307C16 5.4337 15.0119 4.35088 13.7422 4.20088ZM13.44 8.66307H12.6013C11.8682 7.1642 10.4224 6.06063 8.68188 5.83073C8.50562 5.80729 8.34594 5.93089 8.32281 6.10604C8.29969 6.2812 8.42281 6.44198 8.59812 6.4651C10.8113 6.7576 12.48 8.66542 12.48 10.9031C12.48 13.3734 10.4703 15.3831 8 15.3831C5.52969 15.3831 3.52 13.3734 3.52 10.9031C3.52 8.66541 5.18875 6.7576 7.40188 6.4651C7.57719 6.44198 7.70031 6.2812 7.67719 6.10604C7.65406 5.93089 7.49375 5.80714 7.31812 5.83073C5.57762 6.06063 4.13176 7.1642 3.39865 8.66307H2.56C1.50125 8.66307 0.64 7.80182 0.64 6.74307C0.64 5.68432 1.50125 4.82307 2.56 4.82307C2.73687 4.82307 2.88 4.67979 2.88 4.50307C2.88 3.44432 3.74125 2.58307 4.8 2.58307C5.08656 2.58307 5.36531 2.64682 5.62812 2.7726C5.725 2.81901 5.83906 2.8137 5.93094 2.75823C6.02313 2.70292 6.08125 2.60495 6.08594 2.49761C6.13031 1.46886 6.97094 0.663074 8 0.663074C9.02907 0.663074 9.86969 1.46886 9.91407 2.49761C9.91876 2.60495 9.97688 2.70292 10.0691 2.75823C10.1609 2.8137 10.275 2.81901 10.3719 2.7726C10.6347 2.64682 10.9134 2.58307 11.2 2.58307C12.2588 2.58307 13.12 3.44432 13.12 4.50307C13.12 4.67979 13.2631 4.82307 13.44 4.82307C14.4988 4.82307 15.36 5.68432 15.36 6.74307C15.36 7.80182 14.4987 8.66307 13.44 8.66307Z" fill="CurrentColor"/>
<path d="M8.12 10.4182C8.17625 10.3165 8.17313 10.1921 8.11125 10.0935L6.51125 7.53354C6.39438 7.34635 6.08563 7.34635 5.96875 7.53354L4.36875 10.0935C4.30688 10.1921 4.30375 10.3165 4.36 10.4182C4.41657 10.5199 4.52375 10.5831 4.64 10.5831H5.28V12.8231C5.28 12.9998 5.42313 13.1431 5.6 13.1431H6.88C7.05688 13.1431 7.2 12.9998 7.2 12.8231V10.5831H7.84C7.95625 10.5831 8.06344 10.5199 8.12 10.4182ZM6.88 9.94307C6.70313 9.94307 6.56 10.0864 6.56 10.2631V12.5031H5.92V10.2631C5.92 10.0864 5.77687 9.94307 5.6 9.94307H5.2175L6.24 8.30682L7.2625 9.94307H6.88Z" fill="CurrentColor"/>
<path d="M7.88 11.3879C7.82375 11.4896 7.82687 11.614 7.88875 11.7126L9.48875 14.2726C9.54719 14.3662 9.64969 14.4231 9.76 14.4231C9.87031 14.4231 9.97281 14.3662 10.0313 14.2726L11.6313 11.7126C11.6931 11.614 11.6962 11.4896 11.64 11.3879C11.5834 11.2862 11.4762 11.2231 11.36 11.2231H10.72V8.98307C10.72 8.80635 10.5769 8.66307 10.4 8.66307H9.12C8.94313 8.66307 8.8 8.80635 8.8 8.98307V11.2231H8.16C8.04375 11.2231 7.93656 11.2862 7.88 11.3879ZM9.12 11.8631C9.29687 11.8631 9.44 11.7198 9.44 11.5431V9.30307H10.08V11.5431C10.08 11.7198 10.2231 11.8631 10.4 11.8631H10.7825L9.76 13.4993L8.7375 11.8631H9.12Z" fill="CurrentColor"/>
</svg>
