<svg width="32" height="28" viewBox="0 0 32 28" fill="none" xmlns="http://www.w3.org/2000/svg">
<path d="M14.6816 23.0544L12.7616 17.9344C12.6656 17.6848 12.4288 17.5184 12.16 17.5184C11.8912 17.5184 11.6544 17.6848 11.5584 17.9344L9.6384 23.0544C9.5168 23.3872 9.68321 23.752 10.016 23.88C10.3488 24.0016 10.7136 23.8352 10.8416 23.5024L11.1616 22.6384H13.1584L13.4784 23.5024C13.599 23.8279 13.98 23.9978 14.304 23.88C14.6368 23.752 14.8032 23.3872 14.6816 23.0544ZM11.6416 21.3584L12.16 19.9824L12.6784 21.3584H11.6416Z" fill="url(#paint0_linear_1_532)"/>
<path d="M17.92 17.5184H16.64C16.288 17.5184 16 17.8064 16 18.1584V23.2784C16 23.6304 16.288 23.9184 16.64 23.9184C16.992 23.9184 17.28 23.6304 17.28 23.2784V21.3584H17.92C18.976 21.3584 19.84 20.4944 19.84 19.4384C19.84 18.3824 18.976 17.5184 17.92 17.5184ZM17.92 20.0784H17.28V18.7984H17.92C18.272 18.7984 18.56 19.0864 18.56 19.4384C18.56 19.7904 18.272 20.0784 17.92 20.0784Z" fill="url(#paint1_linear_1_532)"/>
<path d="M22.4 23.2784V18.1584C22.4 17.805 22.1134 17.5184 21.76 17.5184C21.4066 17.5184 21.12 17.805 21.12 18.1584V23.2784C21.12 23.6319 21.4066 23.9184 21.76 23.9184C22.1134 23.9184 22.4 23.6319 22.4 23.2784Z" fill="url(#paint2_linear_1_532)"/>
<path d="M27.4816 17.5568C27.3728 16.584 26.9696 15.688 26.3488 14.9328C26.5088 14.44 26.8416 14.0112 27.3152 13.7424C27.9808 13.352 28.7872 13.352 29.4592 13.7424C29.76 13.9152 30.1568 13.8128 30.3296 13.5056L31.6096 11.2912C31.7799 10.99 31.6861 10.5879 31.3792 10.4144C30.7072 10.0304 30.304 9.33279 30.304 8.55842C30.304 7.784 30.7072 7.08642 31.3793 6.70238C31.6838 6.53021 31.7831 6.12576 31.6096 5.8256L30.3296 3.61119C30.1568 3.304 29.76 3.19522 29.4592 3.37439C28.7872 3.76482 27.9808 3.76482 27.3152 3.37439C26.6432 2.9904 26.24 2.29279 26.24 1.51842C26.24 1.16642 25.952 0.878418 25.6 0.878418H23.04C22.688 0.878418 22.4 1.16642 22.4 1.51842C22.4 2.29279 21.9968 2.99041 21.3248 3.37439C20.6592 3.76482 19.8528 3.76482 19.1808 3.37439C18.8736 3.19521 18.4832 3.304 18.3104 3.61119L17.0304 5.82565C16.8599 6.12733 16.9541 6.52717 17.2608 6.7024C17.9328 7.08643 18.336 7.784 18.336 8.55842C18.336 8.94881 18.2336 9.31361 18.048 9.63361C17.408 9.35201 16.7104 9.19842 16 9.19842C13.5488 9.19842 11.4944 10.9136 11.0016 13.2368C10.5472 13.1024 10.08 13.0384 9.6 13.0384C6.98238 13.0384 4.81281 15.016 4.5184 17.5568C1.97762 17.8512 0 20.0208 0 22.6384C0 25.4608 2.29762 27.7584 5.12 27.7584H10.88C11.232 27.7584 11.52 27.4704 11.52 27.1184C11.52 26.7664 11.232 26.4784 10.88 26.4784H5.12C3.0016 26.4784 1.28 24.7568 1.28 22.6384C1.28 20.52 3.0016 18.7984 5.12 18.7984C5.47199 18.7984 5.76 18.5104 5.76 18.1584C5.76 16.04 7.4816 14.3184 9.6 14.3184C10.176 14.3184 10.7328 14.4464 11.2576 14.696C11.4496 14.792 11.68 14.7792 11.8592 14.6704C12.0448 14.5552 12.16 14.3632 12.1728 14.1456C12.2624 12.0912 13.9392 10.4784 16 10.4784C16.3584 10.4784 16.7104 10.5296 17.0496 10.6256C17.0176 10.6832 16.9792 10.7408 16.9664 10.8048C16.9216 10.9712 16.9472 11.144 17.0304 11.2912L18.3104 13.5056C18.4832 13.8128 18.8736 13.9152 19.1808 13.7424C19.8528 13.352 20.6592 13.352 21.3248 13.7424C21.9968 14.1264 22.4 14.824 22.4 15.5984C22.4 15.9504 22.688 16.2384 23.04 16.2384H25.6C25.6384 16.2384 25.664 16.2256 25.7024 16.2192C26.048 16.8016 26.24 17.4608 26.24 18.1584C26.24 18.5104 26.528 18.7984 26.88 18.7984C28.9984 18.7984 30.72 20.52 30.72 22.6384C30.72 24.7568 28.9984 26.4784 26.88 26.4784H13.44C13.088 26.4784 12.8 26.7664 12.8 27.1184C12.8 27.4704 13.088 27.7584 13.44 27.7584H26.88C29.7024 27.7584 32 25.4608 32 22.6384C32 20.0208 30.0224 17.8512 27.4816 17.5568ZM25.0176 14.9584H23.6224C23.4432 13.9856 22.8544 13.1408 21.9648 12.6352C21.088 12.1232 20.0576 12.0336 19.1296 12.36L18.4256 11.1568C19.1808 10.5104 19.616 9.576 19.616 8.55842C19.616 7.54084 19.1808 6.60643 18.4256 5.96002L19.1296 4.75682C20.0576 5.08323 21.088 4.99362 21.9648 4.48163C22.8544 3.976 23.4432 3.1312 23.6224 2.15843H25.0176C25.1968 3.1312 25.7856 3.97601 26.6752 4.48163C27.552 4.99362 28.5824 5.08323 29.5104 4.75682L30.2144 5.96002C29.4592 6.60643 29.024 7.5408 29.024 8.55842C29.024 9.57604 29.4592 10.5104 30.2144 11.1568L29.5104 12.36C28.5824 12.0336 27.5584 12.1232 26.6752 12.6352C25.7856 13.1408 25.1968 13.9856 25.0176 14.9584Z" fill="url(#paint3_linear_1_532)"/>
<path d="M24.32 5.35842C22.5556 5.35842 21.12 6.79404 21.12 8.55842C21.12 10.3228 22.5556 11.7584 24.32 11.7584C26.0844 11.7584 27.52 10.3228 27.52 8.55842C27.52 6.79404 26.0844 5.35842 24.32 5.35842ZM24.32 10.4784C23.2612 10.4784 22.4 9.61717 22.4 8.55842C22.4 7.49966 23.2612 6.63842 24.32 6.63842C25.3788 6.63842 26.24 7.49966 26.24 8.55842C26.24 9.61717 25.3788 10.4784 24.32 10.4784Z" fill="url(#paint4_linear_1_532)"/>
<defs>
<linearGradient id="paint0_linear_1_532" x1="0.73678" y1="27.7584" x2="32" y2="27.7584" gradientUnits="userSpaceOnUse">
<stop stop-color="#98C1FF"/>
<stop offset="1" stop-color="#267DFF"/>
</linearGradient>
<linearGradient id="paint1_linear_1_532" x1="0.73678" y1="27.7584" x2="32" y2="27.7584" gradientUnits="userSpaceOnUse">
<stop stop-color="#98C1FF"/>
<stop offset="1" stop-color="#267DFF"/>
</linearGradient>
<linearGradient id="paint2_linear_1_532" x1="0.73678" y1="27.7584" x2="32" y2="27.7584" gradientUnits="userSpaceOnUse">
<stop stop-color="#98C1FF"/>
<stop offset="1" stop-color="#267DFF"/>
</linearGradient>
<linearGradient id="paint3_linear_1_532" x1="0.73678" y1="27.7584" x2="32" y2="27.7584" gradientUnits="userSpaceOnUse">
<stop stop-color="#98C1FF"/>
<stop offset="1" stop-color="#267DFF"/>
</linearGradient>
<linearGradient id="paint4_linear_1_532" x1="0.73678" y1="27.7584" x2="32" y2="27.7584" gradientUnits="userSpaceOnUse">
<stop stop-color="#98C1FF"/>
<stop offset="1" stop-color="#267DFF"/>
</linearGradient>
</defs>
</svg>
