<svg width="24" height="25" viewBox="0 0 24 25" fill="none" xmlns="http://www.w3.org/2000/svg">
<path d="M22.08 14.9733C21.1872 14.9733 20.4432 15.5876 20.2272 16.4133H19.68C19.416 16.4133 19.2 16.1973 19.2 15.9333V14.0133H20.16C22.2768 14.0133 24 12.29 24 10.1733C24 8.21005 22.5168 6.58284 20.6112 6.36206C20.3904 4.45645 18.7632 2.97326 16.8 2.97326C16.44 2.97326 16.0896 3.02125 15.7488 3.12206C15.3792 1.37966 13.8384 0.0932617 12 0.0932617C10.1616 0.0932617 8.62081 1.37966 8.2512 3.12206C7.91039 3.02125 7.56 2.97326 7.2 2.97326C5.23679 2.97326 3.60961 4.45645 3.3888 6.36206C1.48321 6.58284 0 8.21005 0 10.1733C0 12.29 1.72321 14.0133 3.84 14.0133H4.8V15.9333C4.8 16.1973 4.58399 16.4133 4.32 16.4133H3.7728C3.55679 15.5876 2.8128 14.9733 1.92 14.9733C0.85919 14.9733 0 15.8325 0 16.8933C0 17.9541 0.85919 18.8133 1.92 18.8133C2.8128 18.8133 3.55679 18.1988 3.7728 17.3733H4.32C5.11201 17.3733 5.76 16.7252 5.76 15.9333V14.0133H9.12V15.4533C9.12 15.7173 9.336 15.9333 9.6 15.9333C9.86399 15.9333 10.08 15.7173 10.08 15.4533V14.0133H11.52V20.3205C10.6944 20.5364 10.08 21.2805 10.08 22.1733C10.08 23.234 10.9392 24.0933 12 24.0933C13.0608 24.0933 13.92 23.234 13.92 22.1733C13.92 21.2805 13.3056 20.5364 12.48 20.3205V14.0133H13.92V19.2933C13.92 20.0852 14.568 20.7333 15.36 20.7333H15.9072C16.1232 21.5588 16.8672 22.1733 17.76 22.1733C18.8208 22.1733 19.68 21.314 19.68 20.2533C19.68 19.1925 18.8208 18.3333 17.76 18.3333C16.8672 18.3333 16.1232 18.9476 15.9072 19.7733H15.36C15.096 19.7733 14.88 19.5573 14.88 19.2933V14.0133H18.24V15.9333C18.24 16.7252 18.888 17.3733 19.68 17.3733H20.2272C20.4432 18.1988 21.1872 18.8133 22.08 18.8133C23.1408 18.8133 24 17.954 24 16.8933C24 15.8325 23.1408 14.9733 22.08 14.9733ZM1.92 17.8533C1.39201 17.8533 0.96 17.4213 0.96 16.8933C0.96 16.3652 1.39201 15.9333 1.92 15.9333C2.44799 15.9333 2.88 16.3652 2.88 16.8933C2.88 17.4213 2.44799 17.8533 1.92 17.8533ZM17.76 19.2933C18.288 19.2933 18.72 19.7252 18.72 20.2533C18.72 20.7813 18.288 21.2133 17.76 21.2133C17.232 21.2133 16.8 20.7813 16.8 20.2533C16.8 19.7252 17.232 19.2933 17.76 19.2933ZM12.96 22.1733C12.96 22.7013 12.528 23.1333 12 23.1333C11.472 23.1333 11.04 22.7013 11.04 22.1733C11.04 21.6452 11.472 21.2133 12 21.2133C12.528 21.2133 12.96 21.6452 12.96 22.1733ZM3.84 13.0533C2.2512 13.0533 0.96 11.7621 0.96 10.1733C0.96 8.58446 2.2512 7.29326 3.84 7.29326C4.104 7.29326 4.32 7.07726 4.32 6.81326C4.32 5.22446 5.6112 3.93326 7.2 3.93326C7.63201 3.93326 8.04961 4.02927 8.44321 4.21645C8.58721 4.28846 8.76 4.27885 8.89441 4.19726C9.0336 4.11567 9.12 3.96687 9.12961 3.80365C9.19678 2.26284 10.4544 1.05326 12 1.05326C13.5456 1.05326 14.8032 2.26284 14.8704 3.80365C14.88 3.96687 14.9664 4.11566 15.1056 4.19726C15.24 4.27885 15.4128 4.28846 15.5568 4.21645C15.9504 4.02927 16.368 3.93326 16.8 3.93326C18.3888 3.93326 19.68 5.22446 19.68 6.81326C19.68 7.07726 19.896 7.29326 20.16 7.29326C21.7488 7.29326 23.04 8.58446 23.04 10.1733C23.04 11.7621 21.7488 13.0533 20.16 13.0533H3.84ZM22.08 17.8533C21.552 17.8533 21.12 17.4213 21.12 16.8933C21.12 16.3652 21.552 15.9333 22.08 15.9333C22.608 15.9333 23.04 16.3652 23.04 16.8933C23.04 17.4213 22.608 17.8533 22.08 17.8533Z" fill="CurrentColor"/>
<path d="M10.08 17.3733C10.08 17.108 9.86508 16.8933 9.6 16.8933C9.33492 16.8933 9.12 17.108 9.12 17.3733V19.2933C9.12 19.5581 8.90461 19.7733 8.64 19.7733H8.09185C7.8772 18.9474 7.132 18.3333 6.24 18.3333C5.18133 18.3333 4.32 19.1944 4.32 20.2533C4.32 21.3122 5.18133 22.1733 6.24 22.1733C7.132 22.1733 7.8772 21.5591 8.09185 20.7333H8.64C9.43406 20.7333 10.08 20.0873 10.08 19.2933V17.3733ZM6.24 21.2133C5.71055 21.2133 5.28 20.7825 5.28 20.2533C5.28 19.724 5.71055 19.2933 6.24 19.2933C6.76945 19.2933 7.2 19.724 7.2 20.2533C7.2 20.7825 6.76945 21.2133 6.24 21.2133Z" fill="CurrentColor"/>
<path d="M10.0512 11.4452L8.6112 7.60524C8.53919 7.41807 8.36159 7.29326 8.16 7.29326C7.95841 7.29326 7.78081 7.41807 7.7088 7.60524L6.2688 11.4452C6.1776 11.6949 6.3024 11.9685 6.55201 12.0645C6.8016 12.1557 7.0752 12.0309 7.1712 11.7812L7.4112 11.1333H8.9088L9.1488 11.7812C9.23927 12.0255 9.52492 12.1528 9.768 12.0645C10.0176 11.9685 10.1424 11.6949 10.0512 11.4452ZM7.7712 10.1733L8.16 9.14125L8.5488 10.1733H7.7712Z" fill="CurrentColor"/>
<path d="M12.48 7.29326H11.52C11.256 7.29326 11.04 7.50927 11.04 7.77326V11.6133C11.04 11.8773 11.256 12.0933 11.52 12.0933C11.784 12.0933 12 11.8773 12 11.6133V10.1733H12.48C13.272 10.1733 13.92 9.52524 13.92 8.73326C13.92 7.94128 13.272 7.29326 12.48 7.29326ZM12.48 9.21326H12V8.25326H12.48C12.744 8.25326 12.96 8.46927 12.96 8.73326C12.96 8.99726 12.744 9.21326 12.48 9.21326Z" fill="CurrentColor"/>
<path d="M16.32 7.29326H15.36C15.096 7.29326 14.88 7.50927 14.88 7.77326V11.6133C14.88 11.8773 15.096 12.0933 15.36 12.0933C15.624 12.0933 15.84 11.8773 15.84 11.6133V10.1733H16.32C17.112 10.1733 17.76 9.52524 17.76 8.73326C17.76 7.94128 17.112 7.29326 16.32 7.29326ZM16.32 9.21326H15.84V8.25326H16.32C16.584 8.25326 16.8 8.46927 16.8 8.73326C16.8 8.99726 16.584 9.21326 16.32 9.21326Z" fill="CurrentColor"/>
</svg>
