<svg width="16" height="17" viewBox="0 0 16 17" fill="none" xmlns="http://www.w3.org/2000/svg">
<path d="M14.1888 11.5847C14.5184 11.2391 14.72 10.7751 14.72 10.2631C14.72 9.20387 13.8592 8.34307 12.8 8.34307C11.7408 8.34307 10.88 9.20387 10.88 10.2631C10.88 10.7751 11.0848 11.2423 11.4112 11.5879C11.04 11.6583 10.6944 11.8279 10.4032 12.0711C10.1152 11.8311 9.76961 11.6583 9.38881 11.5847C9.7184 11.2391 9.92 10.7751 9.92 10.2631C9.92 9.20387 9.0592 8.34307 8 8.34307C6.9408 8.34307 6.08 9.20387 6.08 10.2631C6.08 10.7751 6.2816 11.2391 6.61119 11.5847C6.23039 11.6583 5.8848 11.8311 5.5968 12.0711C5.30561 11.8279 4.96 11.6583 4.58881 11.5879C4.9152 11.2423 5.12 10.7751 5.12 10.2631C5.12 9.20387 4.2592 8.34307 3.2 8.34307C2.1408 8.34307 1.28 9.20387 1.28 10.2631C1.28 10.7751 1.4816 11.2391 1.81119 11.5847C0.7808 11.7863 0 12.6951 0 13.7831V15.7031C0 15.8791 0.144003 16.0231 0.32 16.0231H7.36C7.536 16.0231 7.68 15.8791 7.68 15.7031C7.68 15.5271 7.536 15.3831 7.36 15.3831H6.72V14.4231C6.72 14.2471 6.576 14.1031 6.4 14.1031C6.224 14.1031 6.08 14.2471 6.08 14.4231V15.3831H5.44V13.7831C5.44 12.8999 6.1568 12.1831 7.04 12.1831H8.96C9.8432 12.1831 10.56 12.8999 10.56 13.7831V15.3831H9.92V14.4231C9.92 14.2471 9.77599 14.1031 9.6 14.1031C9.424 14.1031 9.28 14.2471 9.28 14.4231V15.3831H8.64C8.464 15.3831 8.32 15.5271 8.32 15.7031C8.32 15.8791 8.464 16.0231 8.64 16.0231H15.68C15.856 16.0231 16 15.8791 16 15.7031V13.7831C16 12.6951 15.2192 11.7863 14.1888 11.5847ZM3.2 8.98307C3.90721 8.98307 4.48 9.55587 4.48 10.2631C4.48 10.9703 3.90721 11.5431 3.2 11.5431C2.49279 11.5431 1.92 10.9703 1.92 10.2631C1.92 9.55589 2.49279 8.98307 3.2 8.98307ZM4.8 13.7831V15.3831H1.92V14.4231C1.92 14.2471 1.776 14.1031 1.6 14.1031C1.424 14.1031 1.28 14.2471 1.28 14.4231V15.3831H0.64V13.7831C0.64 12.8999 1.3568 12.1831 2.24 12.1831H4.16C4.53119 12.1831 4.88961 12.3143 5.17119 12.5479C4.9376 12.9031 4.8 13.3287 4.8 13.7831ZM8 11.5431C7.29279 11.5431 6.72 10.9703 6.72 10.2631C6.72 9.55589 7.29279 8.98307 8 8.98307C8.7072 8.98307 9.28 9.55587 9.28 10.2631C9.28 10.9703 8.7072 11.5431 8 11.5431ZM12.8 8.98307C13.5072 8.98307 14.08 9.55587 14.08 10.2631C14.08 10.9703 13.5072 11.5431 12.8 11.5431C12.0928 11.5431 11.52 10.9703 11.52 10.2631C11.52 9.55589 12.0928 8.98307 12.8 8.98307ZM15.36 15.3831H14.72V14.4231C14.72 14.2471 14.576 14.1031 14.4 14.1031C14.224 14.1031 14.08 14.2471 14.08 14.4231V15.3831H11.2V13.7831C11.2 13.3287 11.0624 12.9031 10.8288 12.5479C11.1104 12.3143 11.4688 12.1831 11.84 12.1831H13.76C14.6432 12.1831 15.36 12.8999 15.36 13.7831V15.3831Z" fill="CurrentColor"/>
<path d="M4.47156 4.79167C4.31843 4.88011 4.26593 5.07589 4.35437 5.22886L4.99437 6.33729C5.08281 6.49026 5.27844 6.54261 5.43156 6.45448C5.7675 6.26058 6.16843 6.26089 6.50375 6.45448C6.83968 6.64839 7.04 6.99542 7.04 7.38308C7.04 7.5598 7.18313 7.70308 7.36 7.70308H8.64C8.81687 7.70308 8.96 7.5598 8.96 7.38308C8.96 6.99542 9.16031 6.64839 9.49625 6.45448C9.83156 6.26089 10.2325 6.26058 10.5684 6.45448C10.7206 6.54261 10.9169 6.49026 11.0056 6.33729L11.6456 5.22886C11.7341 5.07589 11.6816 4.88011 11.5284 4.79167C11.1928 4.59792 10.9922 4.25073 10.9922 3.86307C10.9922 3.47542 11.1928 3.12823 11.5284 2.93448C11.6816 2.84604 11.7341 2.65026 11.6456 2.49729L11.0056 1.38885C10.9169 1.23573 10.7206 1.18338 10.5684 1.27167C10.2325 1.46557 9.83156 1.46526 9.49625 1.27167C9.16031 1.07776 8.96 0.730729 8.96 0.343071C8.96 0.166351 8.81687 0.0230713 8.64 0.0230713H7.36C7.18313 0.0230713 7.04 0.166351 7.04 0.343071C7.04 0.730729 6.83968 1.07776 6.50375 1.27167C6.16844 1.46526 5.7675 1.46557 5.43156 1.27167C5.27843 1.18338 5.08281 1.23573 4.99437 1.38885L4.35437 2.49729C4.26593 2.65026 4.31844 2.84604 4.47156 2.93448C4.80719 3.12823 5.00781 3.47542 5.00781 3.86307C5.00781 4.25073 4.80719 4.59792 4.47156 4.79167ZM5.05406 2.56542L5.40344 1.96073C5.86937 2.12557 6.3825 2.08073 6.82375 1.82588C7.26563 1.57088 7.56063 1.14963 7.65094 0.663071H8.34906C8.43938 1.14963 8.73438 1.57088 9.17625 1.82588C9.61781 2.08073 10.13 2.12573 10.5966 1.96073L10.9459 2.56542C10.5697 2.88698 10.3522 3.35307 10.3522 3.86307C10.3522 4.37307 10.5697 4.83917 10.9459 5.16073L10.5966 5.76542C10.1303 5.60011 9.61719 5.64511 9.17625 5.90026C8.73438 6.15527 8.43938 6.57651 8.34906 7.06308H7.65094C7.56063 6.57651 7.26563 6.15527 6.82375 5.90026C6.38219 5.64542 5.86969 5.60011 5.40344 5.76542L5.05406 5.16073C5.43031 4.83917 5.64781 4.37307 5.64781 3.86307C5.64781 3.35307 5.43031 2.88698 5.05406 2.56542Z" fill="CurrentColor"/>
<path d="M8 5.46307C8.88219 5.46307 9.6 4.74526 9.6 3.86307C9.6 2.98089 8.88219 2.26307 8 2.26307C7.11781 2.26307 6.4 2.98089 6.4 3.86307C6.4 4.74526 7.11781 5.46307 8 5.46307ZM8 2.90307C8.52937 2.90307 8.96 3.3337 8.96 3.86307C8.96 4.39245 8.52937 4.82307 8 4.82307C7.47062 4.82307 7.04 4.39245 7.04 3.86307C7.04 3.3337 7.47062 2.90307 8 2.90307Z" fill="CurrentColor"/>
</svg>
