<svg width="32" height="33" viewBox="0 0 32 33" fill="none" xmlns="http://www.w3.org/2000/svg">
<path d="M31.36 0.427734C31.0063 0.427734 30.72 0.714294 30.72 1.06773V31.1477H0.64C0.286253 31.1477 0 31.4343 0 31.7877C0 32.1412 0.286253 32.4277 0.64 32.4277H31.36C31.7137 32.4277 32 32.1412 32 31.7877V1.06773C32 0.714294 31.7137 0.427734 31.36 0.427734Z" fill="url(#paint0_linear_1_528)"/>
<path d="M24.96 29.8677H28.8C29.1537 29.8677 29.44 29.5812 29.44 29.2277V18.9877C29.44 18.6343 29.1537 18.3477 28.8 18.3477C28.4463 18.3477 28.16 18.6343 28.16 18.9877V28.5877H25.6V5.54773H28.16V16.4277C28.16 16.7812 28.4463 17.0677 28.8 17.0677C29.1537 17.0677 29.44 16.7812 29.44 16.4277V4.90773C29.44 4.55429 29.1537 4.26773 28.8 4.26773H24.96C24.6063 4.26773 24.32 4.55429 24.32 4.90773V29.2277C24.32 29.5812 24.6063 29.8677 24.96 29.8677Z" fill="url(#paint1_linear_1_528)"/>
<path d="M17.92 29.2277C17.92 29.5812 18.2063 29.8677 18.56 29.8677H22.4C22.7537 29.8677 23.04 29.5812 23.04 29.2277V11.3077C23.04 10.9543 22.7537 10.6677 22.4 10.6677H18.56C18.2063 10.6677 17.92 10.9543 17.92 11.3077V29.2277ZM19.2 11.9477H21.76V28.5877H19.2V11.9477Z" fill="url(#paint2_linear_1_528)"/>
<path d="M12.16 20.9077C11.8063 20.9077 11.52 21.1943 11.52 21.5477V29.2277C11.52 29.5812 11.8063 29.8677 12.16 29.8677H16C16.3537 29.8677 16.64 29.5812 16.64 29.2277V21.5477C16.64 21.1943 16.3537 20.9077 16 20.9077H12.16ZM15.36 28.5877H12.8V22.1877H15.36V28.5877Z" fill="url(#paint3_linear_1_528)"/>
<path d="M5.76 18.3477C5.40625 18.3477 5.12 18.6343 5.12 18.9877V29.2277C5.12 29.5812 5.40625 29.8677 5.76 29.8677H9.6C9.95375 29.8677 10.24 29.5812 10.24 29.2277V18.9877C10.24 18.6343 9.95375 18.3477 9.6 18.3477H5.76ZM8.96 28.5877H6.4V19.6277H8.96V28.5877Z" fill="url(#paint4_linear_1_528)"/>
<path d="M12.16 0.427734C8.98375 0.427734 6.4 3.0118 6.4 6.18773C6.4 7.54551 6.87496 8.79289 7.66387 9.77863L6.72933 10.7133L6.27687 10.2609C6.02687 10.0109 5.62187 10.0109 5.37187 10.2609L2.65562 12.9762C1.90813 13.7249 1.90812 14.9427 2.65624 15.6912C3.38742 16.4227 4.6412 16.4218 5.37187 15.6912L8.08687 12.9759C8.33687 12.7259 8.33687 12.3209 8.08687 12.0709L7.63434 11.6183L8.56883 10.6837C9.55457 11.4727 10.802 11.9477 12.16 11.9477C15.3362 11.9477 17.92 9.36368 17.92 6.18774C17.92 3.0118 15.3362 0.427734 12.16 0.427734ZM4.46687 14.7862C4.2175 15.0349 3.81187 15.0362 3.56125 14.7862C3.31187 14.5365 3.31187 14.1305 3.56125 13.8809L5.82437 11.6184L6.72937 12.5234L4.46687 14.7862ZM12.16 10.6677C9.69 10.6677 7.68 8.65804 7.68 6.18773C7.68 3.71742 9.69 1.70773 12.16 1.70773C14.63 1.70773 16.64 3.71742 16.64 6.18773C16.64 8.65804 14.63 10.6677 12.16 10.6677Z" fill="url(#paint5_linear_1_528)"/>
<path d="M12.16 4.26773C13.2188 4.26773 14.08 5.12898 14.08 6.18773C14.08 6.54117 14.3663 6.82773 14.72 6.82773C15.0737 6.82773 15.36 6.54117 15.36 6.18773C15.36 4.42336 13.9244 2.98773 12.16 2.98773C11.8063 2.98773 11.52 3.27429 11.52 3.62773C11.52 3.98117 11.8063 4.26773 12.16 4.26773Z" fill="url(#paint6_linear_1_528)"/>
<defs>
<linearGradient id="paint0_linear_1_528" x1="0.73678" y1="32.4277" x2="32" y2="32.4277" gradientUnits="userSpaceOnUse">
<stop stop-color="#98C1FF"/>
<stop offset="1" stop-color="#267DFF"/>
</linearGradient>
<linearGradient id="paint1_linear_1_528" x1="0.73678" y1="32.4277" x2="32" y2="32.4277" gradientUnits="userSpaceOnUse">
<stop stop-color="#98C1FF"/>
<stop offset="1" stop-color="#267DFF"/>
</linearGradient>
<linearGradient id="paint2_linear_1_528" x1="0.73678" y1="32.4277" x2="32" y2="32.4277" gradientUnits="userSpaceOnUse">
<stop stop-color="#98C1FF"/>
<stop offset="1" stop-color="#267DFF"/>
</linearGradient>
<linearGradient id="paint3_linear_1_528" x1="0.73678" y1="32.4277" x2="32" y2="32.4277" gradientUnits="userSpaceOnUse">
<stop stop-color="#98C1FF"/>
<stop offset="1" stop-color="#267DFF"/>
</linearGradient>
<linearGradient id="paint4_linear_1_528" x1="0.73678" y1="32.4277" x2="32" y2="32.4277" gradientUnits="userSpaceOnUse">
<stop stop-color="#98C1FF"/>
<stop offset="1" stop-color="#267DFF"/>
</linearGradient>
<linearGradient id="paint5_linear_1_528" x1="0.73678" y1="32.4277" x2="32" y2="32.4277" gradientUnits="userSpaceOnUse">
<stop stop-color="#98C1FF"/>
<stop offset="1" stop-color="#267DFF"/>
</linearGradient>
<linearGradient id="paint6_linear_1_528" x1="0.73678" y1="32.4277" x2="32" y2="32.4277" gradientUnits="userSpaceOnUse">
<stop stop-color="#98C1FF"/>
<stop offset="1" stop-color="#267DFF"/>
</linearGradient>
</defs>
</svg>
